<?xml version="1.0" encoding="UTF-8" standalone="no"?>
<svg
   viewBox="0 0 32 32"
   version="1.1"
   id="svg4"
   sodipodi:docname="downloading.svg"
   inkscape:version="1.2.2 (b0a8486541, 2022-12-01)"
   xmlns:inkscape="http://www.inkscape.org/namespaces/inkscape"
   xmlns:sodipodi="http://sodipodi.sourceforge.net/DTD/sodipodi-0.dtd"
   xmlns="http://www.w3.org/2000/svg"
   xmlns:svg="http://www.w3.org/2000/svg">
  <defs
     id="defs8" />
  <sodipodi:namedview
     id="namedview6"
     pagecolor="#ffffff"
     bordercolor="#000000"
     borderopacity="0.25"
     inkscape:showpageshadow="2"
     inkscape:pageopacity="0.0"
     inkscape:pagecheckerboard="0"
     inkscape:deskcolor="#d1d1d1"
     showgrid="false"
     inkscape:zoom="23.21875"
     inkscape:cx="15.978466"
     inkscape:cy="16"
     inkscape:window-width="1920"
     inkscape:window-height="1051"
     inkscape:window-x="0"
     inkscape:window-y="0"
     inkscape:window-maximized="1"
     inkscape:current-layer="svg4" />
  <path
     fill="#327f2c"
     d="M29 16.1c.3.7.2 1.4-.3 1.9L17.2 29.4c-.3.3-.7.5-1.2.5s-.8-.2-1.2-.5L3.3 17.9c-.5-.5-.7-1-.3-1.9.3-.7.8-1 1.5-1h6.6V3.8c0-.5.2-.8.5-1.2.3-.3.7-.5 1.2-.5h6.6c.5 0 .8.2 1.2.5.3.3.5.7.5 1.2v11.5h6.6c.6-.2 1.1.1 1.3.8z"
     id="path2" />
</svg>
