<svg version="1.1" viewBox="0 0 32 32" xmlns="http://www.w3.org/2000/svg"><path d="m19 28c0 0.26-0.13 0.51-0.38 0.77s-0.51 0.38-0.77 0.38h-4.5c-0.26 0-0.51-0.13-0.77-0.38s-0.38-0.51-0.38-0.77v-4c0-0.26 0.13-0.51 0.38-0.77s0.51-0.38 0.77-0.38h4.5c0.26 0 0.51 0.13 0.77 0.38s0.38 0.51 0.38 0.77zm0-9.1c0 0.26-0.13 0.51-0.38 0.77-0.26 0.26-0.51 0.38-0.77 0.38h-4.5c-0.26 0-0.64-0.13-0.77-0.38-0.26-0.26-0.38-0.51-0.38-0.77l-0.34-14c0-0.26 0.086-0.54 0.26-0.77 0.22-0.29 0.51-0.38 0.77-0.38h5.3c0.26 0 0.51 0.13 0.77 0.38 0.26 0.26 0.38 0.51 0.26 0.77z" fill="#b94040" stroke-width="1.3"/></svg>
