<svg version="1.1" viewBox="0 0 35 35" xmlns="http://www.w3.org/2000/svg"><path d="m15.54 29.03c0 0.2427 0 0.4854-0.1914 0.7282-0.1914 0.2427-0.3828 0.2427-0.5742 0.2427h-6.507c-0.1914 0-0.3828 0-0.5742-0.2427-0.1914-0.2427-0.1914-0.4854-0.1914-0.7282v-23.06c0-0.2427 0-0.4854 0.1914-0.7282 0.1914-0.2427 0.3828-0.2427 0.5742-0.2427h6.507c0.1914 0 0.3828 0 0.5742 0.2427 0.1914 0.2427 0.1914 0.4854 0.1914 0.7282zm11.96 0c0 0.2427 0 0.4854-0.1914 0.7282-0.1914 0.2427-0.3828 0.2427-0.5742 0.2427h-6.507c-0.1914 0-0.3828 0-0.5742-0.2427-0.1914-0.2427-0.1914-0.4854-0.1914-0.7282v-23.06c0-0.2427 0-0.4854 0.1914-0.7282 0.1914-0.2427 0.3828-0.2427 0.5742-0.2427h6.507c0.1914 0 0.3828 0 0.5742 0.2427 0.1914 0.2427 0.1914 0.4854 0.1914 0.7282z" fill="#d53636" stroke-width="1.078"/></svg>
