<svg version="1.1" viewBox="0 0 32 32" xmlns="http://www.w3.org/2000/svg"><path d="m16 11.87c-1.2 0-2.1 0.35-2.9 1.2-0.82 0.82-1.2 1.8-1.2 2.9 0 1.2 0.35 2.1 1.2 2.9 0.82 0.82 1.8 1.2 2.9 1.2 1.2 0 2.1-0.35 2.9-1.2 0.761-0.761 1.143-1.66 1.194-2.665 4e-3 -0.07784 0.0059-0.1563 0.0059-0.2354 0-1.2-0.35-2.1-1.2-2.9-0.82-0.82-1.579-1.261-2.9-1.2zm12.37 2.391v3.6c0 0.12 0 0.23-0.12 0.35s-0.23 0.23-0.35 0.23l-3 0.47c-0.23 0.58-0.47 1.1-0.58 1.5 0.35 0.58 0.93 1.3 1.8 2.2 0.12 0.12 0.12 0.23 0.12 0.35s0 0.23-0.12 0.35c-0.35 0.35-0.82 0.93-1.6 1.8-0.82 0.82-1.3 1.2-1.5 1.2-0.12 0-0.23 0-0.47-0.12l-2.2-1.8c-0.47 0.23-0.93 0.47-1.5 0.58-0.12 1.5-0.35 2.5-0.47 3-0.12 0.35-0.23 0.47-0.58 0.47h-3.6c-0.12 0-0.23 0-0.35-0.12s-0.23-0.23-0.23-0.35l-0.47-3c-0.58-0.12-1.1-0.35-1.5-0.58l-2.3 1.8c-0.12 0.12-0.23 0.12-0.35 0.12s-0.23-0.12-0.35-0.23c-1.4-1.3-2.2-2.1-2.7-2.7-0.12-0.12-0.12-0.23-0.12-0.35s0-0.23 0.12-0.35c0.12-0.23 0.47-0.58 0.82-1.1 0.35-0.47 0.7-0.93 0.93-1.2-0.35-0.58-0.47-1.1-0.7-1.6l-2.9-0.47c-0.12 0-0.23-0.12-0.35-0.23-0.12-0.12-0.12-0.23-0.12-0.35v-3.6c0-0.12 0-0.23 0.12-0.35s0.23-0.23 0.35-0.23l3-0.47c0.12-0.47 0.35-1.1 0.58-1.5-0.47-0.58-1.1-1.4-1.8-2.2-0.12-0.12-0.12-0.23-0.12-0.35s0-0.23 0.12-0.35c0.23-0.47 0.82-1.1 1.6-1.8 0.82-0.82 1.3-1.2 1.5-1.2 0.12 0 0.23 0 0.47 0.12l2.2 1.8c0.47-0.23 0.93-0.47 1.5-0.58 0.12-1.5 0.35-2.5 0.47-3 0.12-0.35 0.23-0.47 0.58-0.47h3.6c0.12 0 0.23 0 0.35 0.12s0.12 0.23 0.23 0.35l0.47 3c0.58 0.12 1.1 0.35 1.5 0.58l2.3-1.8c0.12-0.12 0.23-0.12 0.35-0.12s0.23 0 0.35 0.12c1.4 1.3 2.3 2.2 2.7 2.8 0.12 0.12 0.12 0.23 0.12 0.35s0 0.23-0.12 0.35c-0.12 0.23-0.47 0.58-0.82 1.1-0.35 0.47-0.7 0.93-0.93 1.2 0.23 0.58 0.47 1.1 0.7 1.6l3 0.47c0.12 0 0.23 0.12 0.35 0.23z" fill="#808080" stroke-width="1.2"/></svg>
